HIERARCHY
ROOT SpineBase
{
  OFFSET 0.000000 0.000000 0.000000
  CHANNELS 6 Xposition Yposition Zposition Zrotation Xrotation Yrotation
  JOINT SpineMid
  {
    OFFSET -0.000000 28.318301 0.000000
    CHANNELS 3 Zrotation Xrotation Yrotation
    JOINT SpineShoulder
    {
      OFFSET -0.075535 21.036209 -0.712694
      CHANNELS 3 Zrotation Xrotation Yrotation
      JOINT Neck
      {
        OFFSET -0.048820 6.951501 -0.543186
        CHANNELS 3 Zrotation Xrotation Yrotation
        JOINT Head
        {
          OFFSET 3.756390 13.060546 -0.892959
          CHANNELS 3 Zrotation Xrotation Yrotation
          End Site
          {
            OFFSET 0 0 0
          }
        }
      }
      JOINT ShoulderLeft
      {
        OFFSET -14.015264 -3.863915 -7.338177
        CHANNELS 3 Zrotation Xrotation Yrotation
        JOINT ElbowLeft
        {
          OFFSET -5.009340 -24.446146 0.415850
          CHANNELS 3 Zrotation Xrotation Yrotation
          JOINT WristLeft
          {
            OFFSET 0.804968 -21.790351 -5.317785
            CHANNELS 3 Zrotation Xrotation Yrotation
            JOINT HandLeft
            {
              OFFSET 0.755501 -6.312471 1.353782
              CHANNELS 3 Zrotation Xrotation Yrotation
              JOINT HandTipLeft
              {
                OFFSET 0.829207 -6.049893 0.314833
                CHANNELS 3 Zrotation Xrotation Yrotation
                End Site
                {
                  OFFSET 0 0 0
                }
              }
              JOINT ThumbLeft
              {
                OFFSET -3.385795 -0.231739 -2.242602
                CHANNELS 3 Zrotation Xrotation Yrotation
                End Site
                {
                  OFFSET 0 0 0
                }
              }
            }
          }
        }
      }
      JOINT ShoulderRight
      {
        OFFSET 15.632110 -5.628300 1.771852
        CHANNELS 3 Zrotation Xrotation Yrotation
        JOINT ElbowRight
        {
          OFFSET 2.825817 -26.975576 4.761393
          CHANNELS 3 Zrotation Xrotation Yrotation
          JOINT WristRight
          {
            OFFSET 2.437839 -21.070911 -4.096098
            CHANNELS 3 Zrotation Xrotation Yrotation
            JOINT HandRight
            {
              OFFSET -0.501266 -4.852368 -0.354427
              CHANNELS 3 Zrotation Xrotation Yrotation
              JOINT HandTipRight
              {
                OFFSET -1.096677 -5.972048 -3.148062
                CHANNELS 3 Zrotation Xrotation Yrotation
                End Site
                {
                  OFFSET 0 0 0
                }
              }
              JOINT ThumbRight
              {
                OFFSET 0.825342 0.006865 -1.194154
                CHANNELS 3 Zrotation Xrotation Yrotation
                End Site
                {
                  OFFSET 0 0 0
                }
              }
            }
          }
        }
      }
    }
  }
  JOINT HipLeft
  {
    OFFSET -5.797567 0.765973 -5.145694
    CHANNELS 3 Zrotation Xrotation Yrotation
    JOINT KneeLeft
    {
      OFFSET -6.052464 -28.234579 7.260538
      CHANNELS 3 Zrotation Xrotation Yrotation
      JOINT AnkleLeft
      {
        OFFSET -4.382321 -31.330568 10.968794
        CHANNELS 3 Zrotation Xrotation Yrotation
        JOINT FootLeft
        {
          OFFSET 2.493819 -4.166710 -11.734393
          CHANNELS 3 Zrotation Xrotation Yrotation
          End Site
          {
            OFFSET 0 0 0
          }
        }
      }
    }
  }
  JOINT HipRight
  {
    OFFSET 5.446949 0.161900 -1.459294
    CHANNELS 3 Zrotation Xrotation Yrotation
    JOINT KneeRight
    {
      OFFSET -4.623317 -28.832547 9.060204
      CHANNELS 3 Zrotation Xrotation Yrotation
      JOINT AnkleRight
      {
        OFFSET -8.286771 -32.413289 10.657990
        CHANNELS 3 Zrotation Xrotation Yrotation
        JOINT FootRight
        {
          OFFSET 2.302069 -3.690081 -12.533175
          CHANNELS 3 Zrotation Xrotation Yrotation
          End Site
          {
            OFFSET 0 0 0
          }
        }
      }
    }
  }
}
MOTION
Frames: 10
Frame Time: 0.033333
17.918190 67.034951 365.964093 0.000000 0.000000 -18.151204 -0.000000 0.000000 18.151204 -0.000000 0.000000 0.000000 -0.000000 0.000000 0.000000 0.000000 0.000000 0.000000 -0.000000 0.000000 0.000000 -0.000000 0.000000 0.000000 -0.000000 0.000000 0.000000 -0.000000 0.000000 0.000000 0.000000 0.000000 0.000000 0.000000 0.000000 0.000000 -0.000000 0.000000 0.000000 -0.000000 0.000000 0.000000 -0.000000 0.000000 0.000000 -0.000000 0.000000 0.000000 0.000000 0.000000 0.000000 0.000000 0.000000 0.000000 -0.000000 0.000000 18.151204 -0.000000 0.000000 0.000000 -0.000000 0.000000 0.000000 0.000000 0.000000 0.000000 -0.000000 0.000000 18.151204 -0.000000 0.000000 0.000000 -0.000000 0.000000 0.000000 0.000000 0.000000 0.000000
17.792732 67.065034 366.107517 -0.066535 -0.187178 -18.350144 0.004224 0.198607 18.350028 -0.000000 0.000000 0.000000 -0.000000 0.000000 0.000000 0.000000 0.000000 0.000000 -0.000000 0.000000 0.000000 -0.202748 -0.976068 0.011719 0.922946 1.390542 0.173948 -2.454765 1.422635 -0.030708 0.000000 0.000000 0.000000 0.000000 0.000000 0.000000 -0.000000 0.000000 0.000000 -0.000000 0.000000 0.000000 -3.387581 -2.241400 0.412122 5.093806 0.996379 -1.272435 0.000000 0.000000 0.000000 0.000000 0.000000 0.000000 0.004224 0.198607 18.350028 -0.000000 0.000000 0.000000 -0.000000 0.000000 0.000000 0.000000 0.000000 0.000000 0.004224 0.198607 18.350028 -0.000000 0.000000 0.000000 -1.995694 -5.307373 4.053868 0.000000 0.000000 0.000000
17.677353 67.090446 366.249607 -0.134196 -0.375679 -18.480855 0.008191 0.398844 18.480387 -0.000000 0.000000 0.000000 -0.000000 0.000000 0.000000 0.000000 0.000000 0.000000 -0.000000 0.000000 0.000000 -0.458632 -1.840717 0.036703 1.867430 2.659383 0.292945 -4.418576 2.436454 -0.080826 0.000000 0.000000 0.000000 0.000000 0.000000 0.000000 -0.000000 0.000000 0.000000 0.265859 -1.088848 -0.175413 -6.591572 -2.497217 0.931738 9.353982 1.147897 -2.328939 0.000000 0.000000 0.000000 0.000000 0.000000 0.000000 0.008191 0.398844 18.480387 1.027481 0.390612 0.302330 -1.029551 -0.385123 -0.309292 0.000000 0.000000 0.000000 0.008191 0.398844 18.480387 -0.000000 0.000000 0.000000 -3.650459 -11.208350 7.763881 0.000000 0.000000 0.000000
17.572051 67.111189 366.390364 -0.202971 -0.565466 -18.543040 0.012610 0.600657 18.541972 -0.000000 0.000000 0.000000 -0.000000 0.000000 0.000000 0.000000 0.000000 0.000000 -0.000000 0.000000 0.000000 -0.767619 -2.587799 0.074814 2.796811 3.777573 0.354268 -5.963012 3.170296 -0.142378 0.000000 0.000000 0.000000 0.000000 0.000000 0.000000 -0.000000 0.000000 0.000000 0.314980 -1.286994 -0.206987 -9.155916 -2.658870 1.155110 12.836294 0.416486 -3.022725 0.000000 0.000000 0.000000 0.000000 0.000000 0.000000 0.012610 0.600657 18.541972 1.349048 0.599286 0.382771 -1.353094 -0.590094 -0.396795 0.000000 0.000000 0.000000 0.012610 0.600657 18.541972 0.553826 0.942492 -0.063661 -5.400594 -18.095076 10.638366 0.000000 0.000000 0.000000
17.476827 67.127261 366.529786 -0.272848 -0.756497 -18.536407 0.018208 0.803989 18.534478 -0.000000 0.000000 0.000000 -0.000000 0.000000 0.000000 0.000000 0.000000 0.000000 -0.000000 0.000000 0.000000 -1.129354 -3.212188 0.126168 3.671199 4.715508 0.357614 -7.115420 3.713464 -0.199089 0.000000 0.000000 0.000000 0.000000 0.000000 0.000000 -0.000000 0.000000 0.000000 0.308405 -1.252190 -0.201828 -11.246552 -2.002104 1.262645 15.587612 -1.244935 -3.242640 0.000000 0.000000 0.000000 0.000000 0.000000 0.000000 0.018208 0.803989 18.534478 1.551314 0.818003 0.419494 -1.557416 -0.806324 -0.441528 0.000000 0.000000 0.000000 0.018208 0.803989 18.534478 0.724227 1.119597 -0.055449 -6.325436 -23.577111 12.213756 0.000000 0.000000 0.000000
17.391681 67.138664 366.667874 -0.343815 -0.948732 -18.460671 0.025724 1.008776 18.457598 -0.000000 0.000000 0.000000 -0.000000 0.000000 0.000000 0.000000 0.000000 0.000000 -0.000000 0.000000 0.000000 -1.543145 -3.709789 0.191151 4.453329 5.446519 0.305187 -7.877608 4.126881 -0.233358 0.000000 0.000000 0.000000 0.000000 0.000000 0.000000 -0.000000 0.000000 0.000000 0.246135 -0.984746 -0.159895 -12.855735 -0.426734 1.280820 17.646170 -3.917674 -2.901664 0.000000 0.000000 0.000000 0.000000 0.000000 0.000000 0.025724 1.008776 18.457598 1.638099 1.048168 0.414088 -1.645900 -1.035873 -0.443953 0.000000 0.000000 0.000000 0.025724 1.008776 18.457598 0.881164 1.218544 -0.031340 -6.914298 -27.736134 12.120157 0.000000 0.000000 0.000000
17.318962 67.156988 366.824603 -0.438887 -1.169422 -18.210921 0.051485 1.247995 18.205881 -0.000000 0.000000 0.000000 -0.000000 0.000000 0.000000 0.000000 0.000000 0.000000 -0.000000 0.000000 0.000000 -2.104914 -4.127365 0.288083 5.079906 5.785787 0.135339 -8.929671 4.351272 -0.230642 0.000000 0.000000 0.000000 0.000000 0.000000 0.000000 -0.000000 0.000000 0.000000 0.039617 -1.145185 -0.140071 -14.335680 3.122123 1.497153 19.258146 -8.141651 -1.717924 0.000000 0.000000 0.000000 0.000000 0.000000 0.000000 0.051485 1.247995 18.205881 1.499443 1.437588 0.306989 -1.507592 -1.429040 -0.344604 0.000000 0.000000 0.000000 0.051485 1.247995 18.205881 0.697333 1.350057 -0.124768 -7.266985 -33.235865 8.192700 0.000000 0.000000 0.000000
17.259085 67.160028 366.954713 -0.526705 -1.371720 -18.018718 0.171815 0.598367 18.000608 0.015530 -0.004566 -0.009756 0.162384 0.860444 0.017522 0.000000 0.000000 0.000000 0.162384 0.860444 0.017522 -2.615731 -4.215821 0.390193 5.435860 6.207566 -0.000585 -8.231836 4.189715 -0.224653 0.000000 0.000000 0.000000 0.000000 0.000000 0.000000 0.162384 0.860444 0.017522 -0.000000 0.000000 0.000000 -15.248051 6.952764 1.309084 20.214234 -14.776246 0.376946 0.000000 0.000000 0.000000 0.000000 0.000000 0.000000 0.076638 1.467348 18.011431 1.350663 1.704350 0.215865 -1.357671 -1.698774 -0.256085 0.000000 0.000000 0.000000 0.076638 1.467348 18.011431 0.857736 1.311135 -0.063351 -7.196714 -31.908579 1.794583 0.000000 0.000000 0.000000
17.198126 67.146468 367.086398 -0.605365 -1.579919 -17.701604 0.187729 0.645573 17.678511 0.027859 -0.024629 -0.011970 0.201905 1.046677 0.021298 0.000000 0.000000 0.000000 -0.139420 0.113837 0.209931 -2.729961 -3.295341 0.344782 6.254391 5.715882 -0.128597 -7.515875 4.208557 -0.244600 0.000000 0.000000 0.000000 0.000000 0.000000 0.000000 -0.685222 0.565721 -0.173186 0.885552 0.483702 0.203229 -15.920949 13.255905 1.619651 21.418421 -20.969733 2.593014 0.000000 0.000000 0.000000 0.000000 0.000000 0.000000 0.096432 1.689148 17.691836 0.973851 1.944265 0.052826 -0.976204 -1.943085 -0.085906 0.000000 0.000000 0.000000 0.096432 1.689148 17.691836 1.018232 1.252342 0.003525 -5.339607 -24.815435 -4.988960 0.000000 0.000000 0.000000
17.143515 67.129932 367.216123 -0.640826 -1.746103 -17.294615 0.185578 0.658302 17.268028 0.051128 -0.026144 -0.012625 -0.749301 0.414752 0.195576 0.000000 0.000000 0.000000 -0.217147 0.036391 0.258336 -3.215969 -3.299400 0.426583 7.302766 5.814285 -0.256918 -7.749889 3.743578 -0.418517 0.000000 0.000000 0.000000 0.000000 0.000000 0.000000 -0.732700 -0.041342 -0.264516 0.083597 4.363792 0.851864 -11.374472 14.433294 -0.194909 17.904736 -21.347664 2.923915 0.000000 0.000000 0.000000 0.000000 0.000000 0.000000 0.092912 1.857627 17.283344 0.680459 2.085677 -0.066398 -0.678492 -2.086317 0.041657 0.000000 0.000000 0.000000 0.092912 1.857627 17.283344 1.110760 1.210533 0.044279 -4.619522 -21.671928 -5.029601 0.000000 0.000000 0.000000
